# xmcd
#
# Track frame offsets:
# 180
# 12426
# 32824
# 52138
# 67234
# 87147
# 97324
# 109621
# 125606
# 136149
# 144698
# 174380
# 181426
# 192771
# 215670
# 230584
# 259678
# 288466
#
# Disc length: 3968 seconds
#
#
# Revision: 2
# Processed by: cddbd v1.5.2PL0 Copyright (c) Steve Scherf et al.
# Submitted via: FreeRIP 2.951 
#
DISCID=180f7e12
DTITLE=Synthesizer Sequences - Great Classical Themes
DYEAR=1900
DGENRE=Electronic
TTITLE0=Also Sprach Zarathustra (2001)
TTITLE1=Reverie
TTITLE2=Ases Tot
TTITLE3=Gymnopedie
TTITLE4=Bolero
TTITLE5=Firebird Suite
TTITLE6=Gnossjenne
TTITLE7=Bydlo
TTITLE8=Petite Ouverture A Dancer
TTITLE9=Le Petit Negre
TTITLE10=Rhapsody In Blue
TTITLE11=Brandenburg Concerto No. 3
TTITLE12=La Fille Aux Cheveux De Lin
TTITLE13=Alcarrondas
TTITLE14=Sarabande
TTITLE15=Morgenstimmung
TTITLE16=Danse Estatique
TTITLE17=The Greate Gate Of Kiev
EXTD=
EXTT0=
EXTT1=
EXTT2=
EXTT3=
EXTT4=
EXTT5=
EXTT6=
EXTT7=
EXTT8=
EXTT9=
EXTT10=
EXTT11=
EXTT12=
EXTT13=
EXTT14=
EXTT15=
EXTT16=
EXTT17=
PLAYORDER=
